<svg width="159" height="41" viewBox="0 0 159 41" fill="none" xmlns="http://www.w3.org/2000/svg">
<path d="M57.856 29V14.624H52.264V12.08H66.544V14.624H60.952V29H57.856ZM66.5924 29V19.976C66.5924 19.464 66.5764 18.944 66.5444 18.416C66.5284 17.888 66.4884 17.376 66.4244 16.88H69.3284L69.6644 20.192H69.1844C69.3444 19.392 69.6084 18.728 69.9764 18.2C70.3604 17.672 70.8244 17.28 71.3684 17.024C71.9124 16.768 72.5044 16.64 73.1444 16.64C73.4324 16.64 73.6644 16.656 73.8404 16.688C74.0164 16.704 74.1924 16.744 74.3684 16.808L74.3444 19.448C74.0404 19.32 73.7764 19.24 73.5524 19.208C73.3444 19.176 73.0804 19.16 72.7604 19.16C72.0724 19.16 71.4884 19.304 71.0084 19.592C70.5444 19.88 70.1924 20.28 69.9524 20.792C69.7284 21.304 69.6164 21.888 69.6164 22.544V29H66.5924ZM80.6011 29.24C79.5451 29.24 78.6171 28.992 77.8171 28.496C77.0171 27.984 76.3931 27.256 75.9451 26.312C75.4971 25.368 75.2731 24.24 75.2731 22.928C75.2731 21.616 75.4971 20.496 75.9451 19.568C76.3931 18.624 77.0171 17.904 77.8171 17.408C78.6171 16.896 79.5451 16.64 80.6011 16.64C81.6251 16.64 82.5211 16.896 83.2891 17.408C84.0731 17.904 84.5931 18.576 84.8491 19.424H84.5851L84.8491 16.88H87.7291C87.6811 17.376 87.6331 17.88 87.5851 18.392C87.5531 18.904 87.5371 19.408 87.5371 19.904V29H84.5611L84.5371 26.504H84.8251C84.5691 27.336 84.0491 28 83.2651 28.496C82.4811 28.992 81.5931 29.24 80.6011 29.24ZM81.4411 26.936C82.3851 26.936 83.1451 26.608 83.7211 25.952C84.2971 25.28 84.5851 24.272 84.5851 22.928C84.5851 21.584 84.2971 20.584 83.7211 19.928C83.1451 19.272 82.3851 18.944 81.4411 18.944C80.4971 18.944 79.7371 19.272 79.1611 19.928C78.5851 20.584 78.2971 21.584 78.2971 22.928C78.2971 24.272 78.5771 25.28 79.1371 25.952C79.7131 26.608 80.4811 26.936 81.4411 26.936ZM91.6199 29V19.136H89.2919V16.88H92.4599L91.6199 17.648V15.8C91.6199 14.296 92.0039 13.16 92.7719 12.392C93.5559 11.624 94.6999 11.24 96.2039 11.24C96.5559 11.24 96.9239 11.264 97.3079 11.312C97.7079 11.36 98.0519 11.448 98.3399 11.576V13.928C98.1319 13.848 97.8839 13.784 97.5959 13.736C97.3079 13.688 97.0279 13.664 96.7559 13.664C96.3399 13.664 95.9639 13.744 95.6279 13.904C95.3079 14.064 95.0519 14.312 94.8599 14.648C94.6839 14.968 94.5959 15.4 94.5959 15.944V17.408L94.1639 16.88H97.7879V19.136H94.6199V29H91.6199ZM104.203 29.24C103.147 29.24 102.219 28.992 101.419 28.496C100.619 27.984 99.9946 27.256 99.5466 26.312C99.0986 25.368 98.8746 24.24 98.8746 22.928C98.8746 21.616 99.0986 20.496 99.5466 19.568C99.9946 18.624 100.619 17.904 101.419 17.408C102.219 16.896 103.147 16.64 104.203 16.64C105.227 16.64 106.123 16.896 106.891 17.408C107.675 17.904 108.195 18.576 108.451 19.424H108.187L108.451 16.88H111.331C111.283 17.376 111.235 17.88 111.187 18.392C111.155 18.904 111.139 19.408 111.139 19.904V29H108.163L108.139 26.504H108.427C108.171 27.336 107.651 28 106.867 28.496C106.083 28.992 105.195 29.24 104.203 29.24ZM105.043 26.936C105.987 26.936 106.747 26.608 107.323 25.952C107.899 25.28 108.187 24.272 108.187 22.928C108.187 21.584 107.899 20.584 107.323 19.928C106.747 19.272 105.987 18.944 105.043 18.944C104.099 18.944 103.339 19.272 102.763 19.928C102.187 20.584 101.899 21.584 101.899 22.928C101.899 24.272 102.179 25.28 102.739 25.952C103.315 26.608 104.083 26.936 105.043 26.936ZM114.405 29V11.336H117.405V29H114.405ZM126.279 34.376C125.159 34.376 124.143 34.256 123.231 34.016C122.335 33.776 121.535 33.408 120.831 32.912L121.479 30.752C121.943 31.056 122.423 31.304 122.919 31.496C123.415 31.688 123.927 31.832 124.455 31.928C124.983 32.024 125.519 32.072 126.063 32.072C127.183 32.072 128.015 31.792 128.559 31.232C129.119 30.688 129.399 29.904 129.399 28.88V25.976H129.639C129.383 26.808 128.863 27.472 128.079 27.968C127.311 28.464 126.423 28.712 125.415 28.712C124.327 28.712 123.375 28.472 122.559 27.992C121.759 27.496 121.135 26.792 120.687 25.88C120.239 24.968 120.015 23.896 120.015 22.664C120.015 21.432 120.239 20.368 120.687 19.472C121.135 18.56 121.759 17.864 122.559 17.384C123.375 16.888 124.327 16.64 125.415 16.64C126.439 16.64 127.327 16.888 128.079 17.384C128.847 17.864 129.359 18.52 129.615 19.352L129.399 19.208L129.639 16.88H132.543C132.479 17.376 132.431 17.88 132.399 18.392C132.367 18.904 132.351 19.408 132.351 19.904V28.52C132.351 30.424 131.831 31.872 130.791 32.864C129.767 33.872 128.263 34.376 126.279 34.376ZM126.231 26.408C127.191 26.408 127.951 26.088 128.511 25.448C129.087 24.792 129.375 23.864 129.375 22.664C129.375 21.464 129.087 20.544 128.511 19.904C127.951 19.264 127.191 18.944 126.231 18.944C125.255 18.944 124.479 19.264 123.903 19.904C123.327 20.544 123.039 21.464 123.039 22.664C123.039 23.864 123.327 24.792 123.903 25.448C124.479 26.088 125.255 26.408 126.231 26.408ZM140.273 29.24C139.217 29.24 138.289 28.992 137.489 28.496C136.689 27.984 136.065 27.256 135.617 26.312C135.169 25.368 134.945 24.24 134.945 22.928C134.945 21.616 135.169 20.496 135.617 19.568C136.065 18.624 136.689 17.904 137.489 17.408C138.289 16.896 139.217 16.64 140.273 16.64C141.297 16.64 142.193 16.896 142.961 17.408C143.745 17.904 144.265 18.576 144.521 19.424H144.257L144.521 16.88H147.401C147.353 17.376 147.305 17.88 147.257 18.392C147.225 18.904 147.209 19.408 147.209 19.904V29H144.233L144.209 26.504H144.497C144.241 27.336 143.721 28 142.937 28.496C142.153 28.992 141.265 29.24 140.273 29.24ZM141.113 26.936C142.057 26.936 142.817 26.608 143.393 25.952C143.969 25.28 144.257 24.272 144.257 22.928C144.257 21.584 143.969 20.584 143.393 19.928C142.817 19.272 142.057 18.944 141.113 18.944C140.169 18.944 139.409 19.272 138.833 19.928C138.257 20.584 137.969 21.584 137.969 22.928C137.969 24.272 138.249 25.28 138.809 25.952C139.385 26.608 140.153 26.936 141.113 26.936ZM150.452 29V19.976C150.452 19.464 150.436 18.944 150.404 18.416C150.388 17.888 150.348 17.376 150.284 16.88H153.188L153.524 20.192H153.044C153.204 19.392 153.468 18.728 153.836 18.2C154.22 17.672 154.684 17.28 155.228 17.024C155.772 16.768 156.364 16.64 157.004 16.64C157.292 16.64 157.524 16.656 157.7 16.688C157.876 16.704 158.052 16.744 158.228 16.808L158.204 19.448C157.9 19.32 157.636 19.24 157.412 19.208C157.204 19.176 156.94 19.16 156.62 19.16C155.932 19.16 155.348 19.304 154.868 19.592C154.404 19.88 154.052 20.28 153.812 20.792C153.588 21.304 153.476 21.888 153.476 22.544V29H150.452Z" fill="#233348"/>
<circle cx="20.5" cy="20.5" r="20.5" fill="#458FF6"/>
<path d="M18.344 28.5105V12.9365H12.286V10.1805H27.756V12.9365H21.698V28.5105H18.344Z" fill="white"/>
</svg>
